<svg   x="0px" y="0px"
	 viewBox="0 0 600 600" >

<path class="st0" d="M1033.9,3692.2l-33.8-55.2c-16.6-27.1-100.2-92.7-473.5-227c-234.3-84.3-493.4-163.7-617.9-201.8l-2.7-0.8
	c-41.1-12.6-70.8-21.7-86.5-26.9c-132-43.6-167.7-126.5-171.4-135.9l-2.7-6.9V-115.1l33.3-5.4c1.6-0.3,176.2-31.8,365.8-191.7
	c210.2-177.3,519-312.1,664.6-322.2l49.2-3.4l-7.3,48.8c0,0,0,0,0,0c0,0-0.7,10.8,6.3,18.8c8.5,9.7,26.7,14.8,52.7,14.8
	c74.6,0,164.9-88.1,193.3-122.1l30.4-36.4l30.5,36.4c28.5,33.9,119,122.1,193.4,122.1c25,0,42.6-5.1,50.9-14.9
	c8.3-9.7,6.9-23.7,6.9-23.9l-7.5-48.4l49.5,3.4c143.3,10,452,146.7,665.8,327c189.7,160,364.2,191.4,366,191.7l33.1,5.5l0,33.6
	v3119.1l-2.7,6.9c-1.4,3.7-37,91.5-171.4,135.9c-15.4,5.1-44.2,13.9-84.1,26.2l-5,1.5c-124.5,38.2-383.7,117.6-617.9,201.8
	c-373.3,134.3-456.9,199.8-473.5,227L1033.9,3692.2z M-311.1,3029.5c3.3,7.7,34,73.4,144.2,109.7c15.2,5,44.7,14.1,85.6,26.6
	l2.7,0.8C360,3301,949.1,3492.2,1033.9,3609.4c84.8-117.2,673.9-308.3,1112.5-442.7l5-1.5c39.7-12.2,68.3-21,83.3-25.9
	c110.3-36.4,141-102.1,144.2-109.7V-78.2c-25.4-5-197.7-43.9-383.7-200.8c-205.1-173-497.7-304.5-636.3-316.5
	c0.5,10-0.4,33.6-17.4,53.4c-17.1,20-45.4,30.1-83.9,30.1c-102,0-204.7-112.3-223.8-134.2c-18.9,21.8-121.4,134.2-223.8,134.2
	c-39.4,0-68.1-9.9-85.4-29.5c-16.1-18.4-17.4-39.9-17.1-49.2C566.9-578.6,274.2-449,72.6-278.9C-113-122.4-285.8-83.2-311.1-78.2
	V3029.5z"/>
</svg>
